<svg xmlns="http://www.w3.org/2000/svg" width="32" height="32" viewBox="0 0 32 32" fill="none"><g clip-path="url(#clip0_3_259)">
<path d="M24 0H8C3.58172 0 0 3.58172 0 8V24C0 28.4183 3.58172 32 8 32H24C28.4183 32 32 28.4183 32 24V8C32 3.58172 28.4183 0 24 0Z" fill="url(#paint0_linear_3_259)"></path>
<path d="M20 10H14C11.7909 10 10 11.7909 10 14V18C10 20.2091 11.7909 22 14 22H20" stroke="white" stroke-width="2.5" stroke-linecap="round" stroke-linejoin="round"></path>
<path d="M10 16H18" stroke="white" stroke-width="2.5" stroke-linecap="round"></path>
<path d="M22 14C22 11.7909 20.2091 10 18 10" stroke="#D6A85F" stroke-width="2.5" stroke-linecap="round"></path>
<path d="M22 18C22 20.2091 20.2091 22 18 22" stroke="#D6A85F" stroke-width="2.5" stroke-linecap="round"></path>
</g><defs>
<linearGradient id="paint0_linear_3_259" x1="0" y1="0" x2="32" y2="32" gradientUnits="userSpaceOnUse">
<stop stop-color="#3B2F2F"></stop>
<stop offset="1" stop-color="#1A1414"></stop>
</linearGradient>
<clipPath id="clip0_3_259">
<rect width="32" height="32" fill="white"></rect>
</clipPath>
</defs><style>@media (prefers-color-scheme: light) { :root { filter: none; } }
@media (prefers-color-scheme: dark) { :root { filter: none; } }
</style></svg>